<?xml version="1.0" encoding="UTF-8"?><svg id="Layer_1" xmlns="http://www.w3.org/2000/svg" xmlns:xlink="http://www.w3.org/1999/xlink" viewBox="0 0 500 500"><defs><style>.cls-1{fill:#1d4a4f;}.cls-2{fill:url(#linear-gradient-2);}.cls-3{fill:#00a69c;}.cls-4{fill:#f1f1f1;}.cls-5{fill:#e5e6e6;}.cls-6{fill:url(#linear-gradient);}.cls-7{fill:#023834;}</style><linearGradient id="linear-gradient" x1="0" y1="250.02" x2="500" y2="250.02" gradientUnits="userSpaceOnUse"><stop offset="0" stop-color="#8ad0ca"/><stop offset=".39" stop-color="#47beae"/><stop offset=".91" stop-color="#023834"/></linearGradient><linearGradient id="linear-gradient-2" x1="35.81" y1="250.01" x2="464.19" y2="250.01" xlink:href="#linear-gradient"/></defs><circle class="cls-5" cx="250" cy="249.98" r="250"/><rect class="cls-3" x="42.03" y="169.16" width="415.95" height="163.3" rx="69.89" ry="69.89" transform="translate(250.57 -103.32) rotate(45)"/><path class="cls-6" d="M432.07,78.87l-7.85,7.85c40.11,42.74,64.67,100.22,64.67,163.3s-25.19,122-66.15,164.89l7.85,7.85c42.96-44.93,69.41-105.81,69.41-172.74s-25.81-126.37-67.93-171.15ZM414.89,422.76c-42.89,40.96-101.04,66.15-164.89,66.15s-120.52-24.56-163.26-64.67l-7.85,7.85c44.78,42.11,104.96,67.93,171.11,67.93s127.81-26.44,172.74-69.41l-7.85-7.85ZM77.26,85.13l-7.85-7.85C26.44,122.2,0,183.09,0,250.02s27.07,129.22,70.96,174.3l7.85-7.85C36.93,373.42,11.11,314.64,11.11,250.02s25.19-122,66.15-164.89ZM250,.02C183.07.02,122.19,26.46,77.26,69.42l7.85,7.85C128,36.31,186.15,11.13,250,11.13s123.41,25.81,166.44,67.67l7.85-7.85C379.22,27.09,317.7.02,250,.02Z"/><path class="cls-2" d="M406.74,104.2l-7.81,7.85c33.59,36.22,54.15,84.74,54.15,137.96s-21.19,103.19-55.63,139.59l7.81,7.81c36.48-38.44,58.93-90.37,58.93-147.41s-21.85-107.56-57.44-145.81ZM389.59,397.46c-36.41,34.44-85.59,55.63-139.59,55.63s-101.74-20.56-137.96-54.15l-7.81,7.81c38.26,35.63,89.52,57.44,145.78,57.44s108.96-22.44,147.41-58.93l-7.81-7.81ZM102.56,110.42l-7.81-7.81c-36.48,38.44-58.93,90.37-58.93,147.41s23.07,110.41,60.48,148.96l7.81-7.81c-35.37-36.56-57.19-86.37-57.19-141.15s21.19-103.19,55.63-139.59ZM250,35.83c-57.04,0-108.96,22.44-147.41,58.93l7.81,7.81c36.41-34.44,85.59-55.63,139.59-55.63s104.59,21.81,141.15,57.15l7.81-7.81c-38.56-37.37-91.15-60.44-148.96-60.44Z"/><path class="cls-1" d="M180.4,183l138.2,138.2-85.46,85.45c-38.16,38.16-100.02,38.16-138.17,0-19.09-19.09-28.62-44.08-28.62-69.11,0-24.98,9.51-49.99,28.6-69.09l85.46-85.45Z"/><path class="cls-7" d="M321.22,321.2l-86.76,86.76c-38.82,38.82-101.98,38.82-140.79,0-18.81-18.81-29.17-43.82-29.17-70.42,0-26.6,10.35-51.6,29.14-70.4l86.76-86.76,140.82,140.82ZM96.25,269.76c-18.09,18.09-28.06,42.16-28.05,67.78,0,25.61,9.97,49.69,28.08,67.8,37.37,37.37,98.18,37.37,135.55,0l84.15-84.15-135.58-135.58-84.15,84.15Z"/><path class="cls-4" d="M406.67,94.95c19.09,19.09,28.62,44.08,28.6,69.09.03,25.01-9.51,50-28.6,69.09l-85.46,85.46-138.2-138.2,85.46-85.46c38.16-38.16,100.04-38.13,138.2.03Z"/><path class="cls-7" d="M407.98,234.44l-86.77,86.77-140.82-140.82,86.77-86.77c38.82-38.82,101.99-38.8,140.82.03,18.82,18.82,29.17,43.82,29.14,70.4.03,26.57-10.32,51.58-29.14,70.4ZM321.22,315.96l84.15-84.15c18.12-18.12,28.08-42.19,28.05-67.78.03-25.59-9.93-49.66-28.05-67.78-37.39-37.39-98.21-37.4-135.58-.03l-84.15,84.15,135.58,135.58Z"/><polygon class="cls-1" points="350.31 126.21 375.38 151.29 345.14 181.54 375.36 211.77 350.31 236.83 320.08 206.6 289.85 236.83 264.77 211.75 295 181.52 264.77 151.29 289.83 126.23 320.06 156.46 350.31 126.21"/><path class="cls-7" d="M377.98,211.77l-27.68,27.68-30.23-30.23-30.23,30.23-27.7-27.7,30.23-30.23-30.23-30.23,27.68-27.68,30.23,30.23,30.25-30.25,27.7,27.7-30.25,30.25,30.23,30.23ZM350.3,234.21l22.44-22.44-30.23-30.23,30.25-30.25-22.46-22.46-30.25,30.25-30.23-30.23-22.44,22.44,30.23,30.23-30.23,30.23,22.46,22.46,30.23-30.23,30.23,30.23Z"/></svg>