<?xml version="1.0" encoding="UTF-8"?><svg id="Layer_1" xmlns="http://www.w3.org/2000/svg" xmlns:xlink="http://www.w3.org/1999/xlink" viewBox="0 0 512 512"><defs><style>.cls-1{fill:#1d4a4f;}.cls-2{fill:url(#linear-gradient-2);}.cls-3{fill:#00a69c;}.cls-4{fill:#f1f1f1;}.cls-5{fill:url(#linear-gradient);}.cls-6{fill:#023834;}</style><linearGradient id="linear-gradient" x1="42" y1="236.34" x2="470" y2="236.34" gradientUnits="userSpaceOnUse"><stop offset="0" stop-color="#8ad0ca"/><stop offset=".39" stop-color="#47beae"/><stop offset=".91" stop-color="#023834"/></linearGradient><linearGradient id="linear-gradient-2" x1="72.66" y1="236.34" x2="439.34" y2="236.34" xlink:href="#linear-gradient"/></defs><rect class="cls-3" x="77.97" y="167.13" width="356.05" height="139.78" rx="69.89" ry="69.89" transform="translate(242.58 -111.6) rotate(45)"/><path class="cls-5" d="M411.86,89.84l-6.72,6.72c34.34,36.59,55.35,85.79,55.35,139.78s-21.56,104.43-56.62,141.14l6.72,6.72c36.78-38.46,59.41-90.58,59.41-147.87s-22.1-108.17-58.14-146.5ZM397.14,384.21c-36.71,35.06-86.49,56.62-141.14,56.62s-103.16-21.02-139.75-55.35l-6.72,6.72c38.33,36.05,89.85,58.14,146.47,58.14s109.41-22.64,147.87-59.41l-6.72-6.72ZM108.13,95.2l-6.72-6.72c-36.78,38.46-59.41,90.58-59.41,147.87s23.18,110.61,60.74,149.2l6.72-6.72c-35.86-36.84-57.95-87.15-57.95-142.48s21.56-104.43,56.62-141.14ZM256,22.34c-57.29,0-109.41,22.64-147.87,59.41l6.72,6.72c36.71-35.06,86.49-56.62,141.14-56.62s105.64,22.1,142.48,57.92l6.72-6.72c-38.58-37.54-91.24-60.71-149.2-60.71Z"/><path class="cls-2" d="M390.17,111.52l-6.69,6.72c28.76,31.01,46.35,72.54,46.35,118.1s-18.13,88.33-47.62,119.49l6.69,6.69c31.23-32.91,50.44-77.36,50.44-126.18s-18.71-92.07-49.17-124.82ZM375.49,362.55c-31.16,29.48-73.27,47.62-119.49,47.62s-87.09-17.6-118.1-46.35l-6.69,6.69c32.75,30.5,76.63,49.17,124.79,49.17s93.27-19.21,126.18-50.44l-6.69-6.69ZM129.79,116.85l-6.69-6.69c-31.23,32.91-50.44,77.36-50.44,126.18s19.75,94.51,51.77,127.51l6.69-6.69c-30.28-31.29-48.95-73.93-48.95-120.82s18.13-88.33,47.62-119.49ZM256,53c-48.82,0-93.27,19.21-126.18,50.44l6.69,6.69c31.16-29.48,73.27-47.62,119.49-47.62s89.53,18.67,120.82,48.92l6.69-6.69c-33-31.99-78.02-51.74-127.51-51.74Z"/><path class="cls-1" d="M196.42,178.98l118.3,118.3-73.15,73.15c-32.66,32.66-85.61,32.66-118.28,0-16.34-16.34-24.5-37.73-24.5-59.16,0-21.39,8.14-42.8,24.48-59.14l73.15-73.15Z"/><path class="cls-6" d="M316.96,297.28l-74.27,74.27c-33.23,33.23-87.29,33.23-120.52,0-16.1-16.1-24.97-37.51-24.97-60.28,0-22.77,8.86-44.17,24.94-60.26l74.27-74.27,120.54,120.54ZM124.39,253.25c-15.49,15.49-24.02,36.09-24.02,58.02,0,21.92,8.54,42.54,24.04,58.04,31.99,31.99,84.04,31.99,116.03,0l72.03-72.03-116.06-116.06-72.03,72.03Z"/><path class="cls-4" d="M390.11,103.61c16.34,16.34,24.5,37.73,24.48,59.14.02,21.41-8.14,42.8-24.48,59.14l-73.15,73.15-118.3-118.3,73.15-73.15c32.66-32.66,85.64-32.64,118.3.02Z"/><path class="cls-6" d="M391.23,223.01l-74.27,74.27-120.54-120.54,74.27-74.27c33.23-33.23,87.3-33.22,120.54.02,16.11,16.11,24.97,37.51,24.94,60.26.03,22.75-8.83,44.15-24.94,60.26ZM316.96,292.79l72.03-72.03c15.51-15.51,24.04-36.11,24.01-58.02.03-21.9-8.5-42.51-24.01-58.02-32-32-84.07-32.01-116.06-.02l-72.03,72.03,116.06,116.06Z"/><polygon class="cls-1" points="341.86 130.37 363.33 151.84 337.44 177.73 363.31 203.6 341.86 225.05 315.99 199.18 290.11 225.05 268.64 203.59 294.52 177.71 268.64 151.84 290.09 130.39 315.97 156.26 341.86 130.37"/><path class="cls-6" d="M365.55,203.6l-23.69,23.69-25.87-25.87-25.88,25.88-23.71-23.71,25.88-25.88-25.87-25.87,23.69-23.69,25.87,25.87,25.89-25.89,23.71,23.71-25.89,25.89,25.87,25.87ZM341.86,222.81l19.21-19.21-25.87-25.87,25.89-25.89-19.22-19.22-25.89,25.89-25.87-25.87-19.21,19.21,25.87,25.87-25.88,25.88,19.22,19.22,25.88-25.88,25.87,25.87Z"/><path class="cls-1" d="M155.14,483.37v-6.29c1.44,0,2.16-.55,2.16-1.65,0-1.01-.55-1.51-1.65-1.51s-1.67.69-1.67,2.07v15.68h-7.14v-14.94c0-1.55.16-2.82.47-3.81s.84-1.91,1.59-2.77c.84-.95,1.9-1.7,3.16-2.25s2.57-.83,3.92-.83c2.44,0,4.49.82,6.14,2.46s2.49,3.67,2.49,6.1-.74,4.27-2.23,5.73c-1.36,1.35-3.41,2.02-6.15,2.02l-1.09-.02Z"/><path class="cls-1" d="M176.69,476.25v6.33h-1.99v9.09h-7.14v-23.99h7.14v8.58h1.99ZM185.04,467.67v23.99h-7.14v-23.99h7.14Z"/><path class="cls-1" d="M198.54,479.62v6.33h-2.06v5.71h-7.14v-15.26c0-2.95.81-5.25,2.42-6.88s3.88-2.45,6.79-2.45,4.89.74,6.24,2.22,2.02,3.77,2.02,6.86v15.5h-7.14v-15.03c0-.94-.11-1.59-.33-1.95s-.62-.54-1.2-.54c-1.11,0-1.67.83-1.67,2.5v2.99h2.06Z"/><path class="cls-1" d="M218.28,474.12v17.54h-7.14v-23.99h9.16c2.79,0,4.95.69,6.49,2.07,1.71,1.55,2.57,3.51,2.57,5.89s-1.06,4.47-3.18,6.13l4.11,9.9h-7.49l-3.46-7.73v-6.17h.56c1.5,0,2.25-.64,2.25-1.93,0-1.14-.87-1.71-2.6-1.71h-1.27Z"/><path class="cls-1" d="M232.18,491.67v-17.3c0-2.14.65-3.9,1.95-5.26s2.99-2.04,5.06-2.04c2.46,0,4.35,1.13,5.68,3.39.81-1.22,1.68-2.09,2.6-2.61s2.07-.78,3.43-.78c2.16,0,3.81.68,4.96,2.04s1.72,3.32,1.72,5.87v16.68h-7.14v-15.61c0-.77-.06-1.29-.18-1.54s-.37-.38-.75-.38c-.7,0-1.05.6-1.05,1.79v15.73h-7.14v-15.61c0-.76-.06-1.27-.19-1.53s-.38-.39-.76-.39c-.7,0-1.05.64-1.05,1.92v15.61h-7.14Z"/><path class="cls-1" d="M270.61,479.62v6.33h-2.06v5.71h-7.14v-15.26c0-2.95.81-5.25,2.42-6.88s3.88-2.45,6.79-2.45,4.89.74,6.24,2.22,2.02,3.77,2.02,6.86v15.5h-7.14v-15.03c0-.94-.11-1.59-.33-1.95s-.62-.54-1.2-.54c-1.11,0-1.67.83-1.67,2.5v2.99h2.06Z"/><path class="cls-1" d="M290.35,467.67v23.99h-7.14v-23.99h7.14ZM304.04,467.67l-6.33,10.88,6.29,13.11h-8.02l-5.43-13.25,6.15-10.74h7.33Z"/><path class="cls-1" d="M315.13,479.62v6.33h-2.06v5.71h-7.14v-15.26c0-2.95.81-5.25,2.42-6.88s3.88-2.45,6.79-2.45,4.89.74,6.24,2.22,2.02,3.77,2.02,6.86v15.5h-7.14v-15.03c0-.94-.11-1.59-.33-1.95s-.62-.54-1.2-.54c-1.11,0-1.67.83-1.67,2.5v2.99h2.06Z"/><path class="cls-1" d="M334.87,474.12v17.54h-7.14v-23.99h9.16c2.79,0,4.95.69,6.49,2.07,1.71,1.55,2.57,3.51,2.57,5.89s-1.06,4.47-3.18,6.13l4.11,9.9h-7.49l-3.46-7.73v-6.17h.56c1.5,0,2.25-.64,2.25-1.93,0-1.14-.87-1.71-2.6-1.71h-1.27Z"/><path class="cls-1" d="M359.71,474.56v17.1h-7.14v-17.1h-5.47v-6.89h18.05v6.89h-5.45Z"/></svg>