<?xml version="1.0" encoding="UTF-8"?><svg id="Layer_1" xmlns="http://www.w3.org/2000/svg" xmlns:xlink="http://www.w3.org/1999/xlink" viewBox="0 0 400 100"><defs><style>.cls-1{fill:#1d4a4f;}.cls-2{fill:url(#linear-gradient-2);}.cls-3{fill:#00a69c;}.cls-4{fill:#f1f1f1;}.cls-5{fill:url(#linear-gradient);}.cls-6{fill:#023834;}</style><linearGradient id="linear-gradient" x1="0" y1="50" x2="90.85" y2="50" gradientUnits="userSpaceOnUse"><stop offset="0" stop-color="#8ad0ca"/><stop offset=".39" stop-color="#47beae"/><stop offset=".91" stop-color="#023834"/></linearGradient><linearGradient id="linear-gradient-2" x1="6.51" y1="50" x2="84.35" y2="50" xlink:href="#linear-gradient"/></defs><rect class="cls-3" x="7.64" y="35.31" width="75.58" height="29.67" rx="13.59" ry="13.59" transform="translate(48.76 -17.43) rotate(45)"/><path class="cls-5" d="M78.51,18.9l-1.43,1.43c7.29,7.77,11.75,18.21,11.75,29.67s-4.58,22.17-12.02,29.96l1.43,1.43c7.81-8.16,12.61-19.23,12.61-31.39s-4.69-22.96-12.34-31.1ZM75.39,81.39c-7.79,7.44-18.36,12.02-29.96,12.02s-21.9-4.46-29.67-11.75l-1.43,1.43c8.14,7.65,19.07,12.34,31.09,12.34s23.22-4.81,31.39-12.61l-1.43-1.43ZM14.04,20.04l-1.43-1.43C4.81,26.78,0,37.84,0,50s4.92,23.48,12.89,31.67l1.43-1.43c-7.61-7.82-12.3-18.5-12.3-30.24s4.58-22.17,12.02-29.96ZM45.43,4.57c-12.16,0-23.22,4.81-31.39,12.61l1.43,1.43c7.79-7.44,18.36-12.02,29.96-12.02s22.42,4.69,30.24,12.3l1.43-1.43c-8.19-7.97-19.37-12.89-31.67-12.89Z"/><path class="cls-2" d="M73.91,23.5l-1.42,1.43c6.1,6.58,9.84,15.4,9.84,25.07s-3.85,18.75-10.11,25.36l1.42,1.42c6.63-6.99,10.71-16.42,10.71-26.78s-3.97-19.54-10.44-26.5ZM70.79,76.79c-6.62,6.26-15.55,10.11-25.36,10.11s-18.49-3.74-25.07-9.84l-1.42,1.42c6.95,6.47,16.27,10.44,26.49,10.44s19.8-4.08,26.78-10.71l-1.42-1.42ZM18.64,24.64l-1.42-1.42c-6.63,6.99-10.71,16.42-10.71,26.78s4.19,20.06,10.99,27.07l1.42-1.42c-6.43-6.64-10.39-15.69-10.39-25.65s3.85-18.75,10.11-25.36ZM45.43,11.08c-10.36,0-19.8,4.08-26.78,10.71l1.42,1.42c6.62-6.26,15.55-10.11,25.36-10.11s19.01,3.96,25.65,10.38l1.42-1.42c-7.01-6.79-16.56-10.98-27.07-10.98Z"/><path class="cls-1" d="M32.78,37.82l25.11,25.11-15.53,15.53c-6.93,6.93-18.17,6.93-25.11,0-3.47-3.47-5.2-8.01-5.2-12.56,0-4.54,1.73-9.08,5.2-12.55l15.53-15.53Z"/><path class="cls-6" d="M58.37,62.94l-15.77,15.77c-7.05,7.05-18.53,7.05-25.58,0-3.42-3.42-5.3-7.96-5.3-12.8,0-4.83,1.88-9.38,5.29-12.79l15.77-15.77,25.59,25.59ZM17.49,53.59c-3.29,3.29-5.1,7.66-5.1,12.32,0,4.65,1.81,9.03,5.1,12.32,6.79,6.79,17.84,6.79,24.63,0l15.29-15.29-24.64-24.64-15.29,15.29Z"/><path class="cls-4" d="M73.89,21.82c3.47,3.47,5.2,8.01,5.2,12.55,0,4.54-1.73,9.08-5.2,12.55l-15.53,15.53-25.11-25.11,15.53-15.53c6.93-6.93,18.18-6.93,25.11,0Z"/><path class="cls-6" d="M74.13,47.17l-15.77,15.77-25.59-25.59,15.77-15.77c7.05-7.05,18.53-7.05,25.59,0,3.42,3.42,5.3,7.96,5.29,12.79,0,4.83-1.87,9.37-5.29,12.79ZM58.37,61.98l15.29-15.29c3.29-3.29,5.1-7.67,5.1-12.32,0-4.65-1.8-9.02-5.1-12.32-6.79-6.79-17.85-6.8-24.64,0l-15.29,15.29,24.64,24.64Z"/><polygon class="cls-1" points="63.65 27.5 68.21 32.06 62.71 37.56 68.21 43.05 63.65 47.6 58.16 42.11 52.67 47.6 48.11 43.05 53.6 37.55 48.11 32.06 52.66 27.51 58.16 33 63.65 27.5"/><path class="cls-6" d="M68.68,43.05l-5.03,5.03-5.49-5.49-5.49,5.49-5.03-5.03,5.49-5.49-5.49-5.49,5.03-5.03,5.49,5.49,5.5-5.5,5.03,5.03-5.5,5.5,5.49,5.49ZM63.65,47.13l4.08-4.08-5.49-5.49,5.5-5.5-4.08-4.08-5.5,5.5-5.49-5.49-4.08,4.08,5.49,5.49-5.49,5.49,4.08,4.08,5.49-5.49,5.49,5.49Z"/><path class="cls-1" d="M120.33,55.33v-8.38c1.92,0,2.88-.73,2.88-2.2,0-1.34-.73-2.01-2.2-2.01s-2.22.92-2.22,2.76v20.88h-9.5v-19.9c0-2.06.21-3.75.62-5.07s1.12-2.55,2.12-3.69c1.12-1.26,2.53-2.26,4.21-3s3.43-1.1,5.22-1.1c3.25,0,5.97,1.09,8.18,3.28s3.31,4.89,3.31,8.12-.99,5.68-2.97,7.63c-1.81,1.79-4.54,2.69-8.19,2.69l-1.45-.02Z"/><path class="cls-1" d="M149.03,45.85v8.43h-2.65v12.1h-9.5v-31.95h9.5v11.42h2.65ZM160.14,34.42v31.95h-9.5v-31.95h9.5Z"/><path class="cls-1" d="M178.12,50.34v8.43h-2.74v7.61h-9.5v-20.32c0-3.93,1.07-6.99,3.22-9.16s5.16-3.27,9.05-3.27,6.52.99,8.31,2.96,2.69,5.02,2.69,9.14v20.65h-9.5v-20.01c0-1.25-.15-2.11-.44-2.6s-.83-.73-1.59-.73c-1.48,0-2.22,1.11-2.22,3.32v3.98h2.74Z"/><path class="cls-1" d="M204.41,43.01v23.36h-9.5v-31.95h12.2c3.71,0,6.59.92,8.64,2.76,2.28,2.06,3.42,4.67,3.42,7.84s-1.41,5.95-4.24,8.17l5.48,13.18h-9.97l-4.61-10.3v-8.22h.75c2,0,3-.86,3-2.57,0-1.51-1.15-2.27-3.46-2.27h-1.69Z"/><path class="cls-1" d="M222.92,66.37v-23.03c0-2.86.87-5.19,2.6-7s3.98-2.72,6.74-2.72c3.28,0,5.8,1.51,7.56,4.52,1.08-1.62,2.23-2.78,3.46-3.48s2.75-1.04,4.56-1.04c2.87,0,5.07.91,6.6,2.72s2.29,4.42,2.29,7.82v22.21h-9.5v-20.79c0-1.03-.08-1.71-.25-2.05s-.5-.5-.99-.5c-.94,0-1.4.8-1.4,2.39v20.95h-9.5v-20.79c0-1.01-.09-1.69-.26-2.04s-.51-.51-1.01-.51c-.94,0-1.4.85-1.4,2.55v20.79h-9.5Z"/><path class="cls-1" d="M274.09,50.34v8.43h-2.74v7.61h-9.5v-20.32c0-3.93,1.07-6.99,3.22-9.16s5.16-3.27,9.05-3.27,6.52.99,8.31,2.96,2.69,5.02,2.69,9.14v20.65h-9.5v-20.01c0-1.25-.15-2.11-.44-2.6s-.83-.73-1.59-.73c-1.48,0-2.22,1.11-2.22,3.32v3.98h2.74Z"/><path class="cls-1" d="M300.38,34.42v31.95h-9.5v-31.95h9.5ZM318.61,34.42l-8.43,14.49,8.38,17.46h-10.67l-7.23-17.65,8.19-14.3h9.76Z"/><path class="cls-1" d="M333.38,50.34v8.43h-2.74v7.61h-9.5v-20.32c0-3.93,1.07-6.99,3.22-9.16s5.16-3.27,9.05-3.27,6.52.99,8.31,2.96,2.69,5.02,2.69,9.14v20.65h-9.5v-20.01c0-1.25-.15-2.11-.44-2.6s-.83-.73-1.59-.73c-1.48,0-2.22,1.11-2.22,3.32v3.98h2.74Z"/><path class="cls-1" d="M359.67,43.01v23.36h-9.5v-31.95h12.2c3.71,0,6.59.92,8.64,2.76,2.28,2.06,3.42,4.67,3.42,7.84s-1.41,5.95-4.24,8.17l5.48,13.18h-9.97l-4.61-10.3v-8.22h.75c2,0,3-.86,3-2.57,0-1.51-1.15-2.27-3.46-2.27h-1.69Z"/><path class="cls-1" d="M392.74,43.6v22.78h-9.5v-22.78h-7.28v-9.18h24.04v9.18h-7.26Z"/></svg>